<svg xmlns="http://www.w3.org/2000/svg" viewBox="0 0 24 24" width="24" height="24">
  <path d="M4.929,4.929C4.536,4.536,3.902,4.536,3.51,4.929c-0.393,0.393-0.393,1.027,0,1.42L10.586,12l-7.076,7.07c-0.393,0.393-0.393,1.027,0,1.42c0.393,0.393,1.027,0.393,1.42,0L12,13.414l7.07,7.076c0.393,0.393,1.027,0.393,1.42,0c0.393-0.393,0.393-1.027,0-1.42L13.414,12l7.076-7.07c0.393-0.393,0.393-1.027,0-1.42c-0.393-0.393-1.027-0.393-1.42,0L12,10.586L4.929,4.929z" fill="#fff" stroke="#000" stroke-linecap="round" stroke-linejoin="round" stroke-width="2"/>
</svg>